<svg xmlns="http://www.w3.org/2000/svg" width="252.7" height="72.401" xmlns:v="https://vecta.io/nano"><path d="M151.6 41.601v-7.5h23.5v37.1h-8.4v-7a35.883 35.883 0 0 1-4.378 3.291 47.354 47.354 0 0 1-4.122 2.359 23.594 23.594 0 0 1-9.406 2.499 28.131 28.131 0 0 1-1.694.051q-6.1 0-11.2-2.4-5.1-2.4-8.8-6.9-3.7-4.5-5.8-10.85a40.876 40.876 0 0 1-1.753-8.088 52.887 52.887 0 0 1-.347-6.162q0-8.4 2.15-15.35a37.954 37.954 0 0 1 3.344-7.765 32.27 32.27 0 0 1 2.906-4.235q4.1-5.05 10.05-7.85a29.262 29.262 0 0 1 8.74-2.499 37.251 37.251 0 0 1 4.81-.301 46.269 46.269 0 0 1 5.801.345q2.95.373 5.509 1.149a28.422 28.422 0 0 1 .34.106q5.05 1.6 9.55 4.1l-3.5 7.9q-4.2-2.3-8.5-3.8-4.3-1.5-9.7-1.5a20.332 20.332 0 0 0-7.175 1.254 19.286 19.286 0 0 0-1.525.646 19.039 19.039 0 0 0-6.626 5.257 22.125 22.125 0 0 0-.274.343 24.411 24.411 0 0 0-2.867 4.716 32.852 32.852 0 0 0-1.683 4.434 37.177 37.177 0 0 0-1.287 6.228 50.891 50.891 0 0 0-.363 6.222 45.369 45.369 0 0 0 .352 5.786 33.62 33.62 0 0 0 1.148 5.464q1.5 4.95 4.2 8.4a18.128 18.128 0 0 0 5.87 4.958 17.714 17.714 0 0 0 .58.292q3.75 1.8 8.25 1.8 2.8 0 5.3-.65a24.422 24.422 0 0 0 3.387-1.141 21.248 21.248 0 0 0 1.213-.559q2.1-1.05 3.85-2.3a26.8 26.8 0 0 0 1.826-1.423 21.171 21.171 0 0 0 1.224-1.127v-15.3h-14.5zm-110 21.1v8.5H0v-70h9.5v61.5h32.1zm2.469-36.233a46.437 46.437 0 0 0-.969 9.633 48.913 48.913 0 0 0 .035 1.86 42.769 42.769 0 0 0 2.215 12.24 39.376 39.376 0 0 0 .439 1.223 34.353 34.353 0 0 0 6.061 10.327q4.25 4.95 10.35 7.8a29.142 29.142 0 0 0 6.308 2.092 36.51 36.51 0 0 0 7.592.758 38.35 38.35 0 0 0 5.162-.337A30.074 30.074 0 0 0 90 69.551q6.1-2.85 10.4-7.8 4.3-4.95 6.55-11.55 2.25-6.6 2.25-14.1 0-7.5-2.3-14.05a39.664 39.664 0 0 0-.448-1.214 34.562 34.562 0 0 0-6.102-10.236q-4.25-4.9-10.4-7.75A29.531 29.531 0 0 0 84.165.877 35.739 35.739 0 0 0 76.1.001a39.631 39.631 0 0 0-5.274.339A30.859 30.859 0 0 0 62.2 2.751q-6.1 2.75-10.35 7.6a31.476 31.476 0 0 0-2.232 2.866 34.76 34.76 0 0 0-4.268 8.584 40.316 40.316 0 0 0-1.281 4.667zm143.5 0a46.437 46.437 0 0 0-.969 9.633 48.913 48.913 0 0 0 .035 1.86 42.769 42.769 0 0 0 2.215 12.24 39.376 39.376 0 0 0 .439 1.223 34.353 34.353 0 0 0 6.061 10.327q4.25 4.95 10.35 7.8a29.142 29.142 0 0 0 6.308 2.092 36.51 36.51 0 0 0 7.592.758 38.35 38.35 0 0 0 5.162-.337 30.074 30.074 0 0 0 8.738-2.513q6.1-2.85 10.4-7.8 4.3-4.95 6.55-11.55 2.25-6.6 2.25-14.1 0-7.5-2.3-14.05a39.664 39.664 0 0 0-.448-1.214 34.562 34.562 0 0 0-6.102-10.236q-4.25-4.9-10.4-7.75a29.531 29.531 0 0 0-5.785-1.974A35.739 35.739 0 0 0 219.6.001a39.631 39.631 0 0 0-5.274.339 30.859 30.859 0 0 0-8.626 2.411q-6.1 2.75-10.35 7.6a31.476 31.476 0 0 0-2.232 2.866 34.76 34.76 0 0 0-4.268 8.584 40.316 40.316 0 0 0-1.281 4.667zM52.8 36.101q0 5.4 1.55 10.5a28.9 28.9 0 0 0 2.977 6.711 26.021 26.021 0 0 0 1.573 2.289q3 3.9 7.35 6.25a19.631 19.631 0 0 0 7.499 2.237 24.113 24.113 0 0 0 2.351.113 26.486 26.486 0 0 0 5.119-.473 20.027 20.027 0 0 0 5.031-1.677q4.35-2.15 7.3-5.9a24.679 24.679 0 0 0 3.492-6.114A30.056 30.056 0 0 0 98 47.251a37.865 37.865 0 0 0 1.381-7.843 45.286 45.286 0 0 0 .119-3.307q0-5.4-1.6-10.4a29.351 29.351 0 0 0-3.653-7.591 27.264 27.264 0 0 0-.947-1.309q-3-3.9-7.35-6.25a19.631 19.631 0 0 0-7.499-2.238 24.113 24.113 0 0 0-2.351-.112q-5.5 0-9.85 2.15-4.35 2.15-7.35 5.9a25.203 25.203 0 0 0-3.744 6.533 30.211 30.211 0 0 0-.806 2.317q-1.55 5.1-1.55 11zm143.5 0q0 5.4 1.55 10.5a28.9 28.9 0 0 0 2.977 6.711 26.021 26.021 0 0 0 1.573 2.289q3 3.9 7.35 6.25a19.631 19.631 0 0 0 7.499 2.237 24.113 24.113 0 0 0 2.351.113 26.486 26.486 0 0 0 5.119-.473 20.027 20.027 0 0 0 5.031-1.677q4.35-2.15 7.3-5.9a24.679 24.679 0 0 0 3.492-6.114 30.056 30.056 0 0 0 .958-2.786 37.865 37.865 0 0 0 1.381-7.843 45.286 45.286 0 0 0 .119-3.307q0-5.4-1.6-10.4a29.351 29.351 0 0 0-3.653-7.591 27.264 27.264 0 0 0-.947-1.309q-3-3.9-7.35-6.25a19.631 19.631 0 0 0-7.499-2.238 24.113 24.113 0 0 0-2.351-.112q-5.5 0-9.85 2.15-4.35 2.15-7.35 5.9a25.203 25.203 0 0 0-3.744 6.533 30.211 30.211 0 0 0-.806 2.317q-1.55 5.1-1.55 11z" vector-effect="non-scaling-stroke" stroke="#0BC5EA" stroke-width=".25mm" fill="none"/></svg>